<mxfile host="app.diagrams.net" modified="2023-04-13T17:36:29.240Z" agent="Mozilla/5.0 (Windows NT 10.0; Win64; x64) AppleWebKit/537.36 (KHTML, like Gecko) Chrome/111.0.0.0 Safari/537.36" etag="gtp6PPz4whUDa6g7_abx" version="21.1.7" type="google" pages="2">
  <diagram id="C5RBs43oDa-KdzZeNtuy" name="Page-1">
    <mxGraphModel grid="1" page="1" gridSize="10" guides="1" tooltips="1" connect="1" arrows="1" fold="1" pageScale="1" pageWidth="827" pageHeight="1169" math="0" shadow="0">
      <root>
        <mxCell id="WIyWlLk6GJQsqaUBKTNV-0" />
        <mxCell id="WIyWlLk6GJQsqaUBKTNV-1" parent="WIyWlLk6GJQsqaUBKTNV-0" />
        <mxCell id="4w4W0nmU5TRRSQJKcKBw-2" style="edgeStyle=orthogonalEdgeStyle;rounded=0;orthogonalLoop=1;jettySize=auto;html=1;exitX=0.5;exitY=1;exitDx=0;exitDy=0;entryX=0.5;entryY=0;entryDx=0;entryDy=0;fontStyle=1" edge="1" parent="WIyWlLk6GJQsqaUBKTNV-1" source="WIyWlLk6GJQsqaUBKTNV-3" target="WIyWlLk6GJQsqaUBKTNV-7">
          <mxGeometry relative="1" as="geometry" />
        </mxCell>
        <mxCell id="WIyWlLk6GJQsqaUBKTNV-3" value="Pedir numero 1" style="rounded=1;whiteSpace=wrap;html=1;fontSize=12;glass=0;strokeWidth=1;shadow=0;fontStyle=1" vertex="1" parent="WIyWlLk6GJQsqaUBKTNV-1">
          <mxGeometry x="100" y="160" width="120" height="40" as="geometry" />
        </mxCell>
        <mxCell id="WIyWlLk6GJQsqaUBKTNV-7" value="Pedir numero 2" style="rounded=1;whiteSpace=wrap;html=1;fontSize=12;glass=0;strokeWidth=1;shadow=0;fontStyle=1" vertex="1" parent="WIyWlLk6GJQsqaUBKTNV-1">
          <mxGeometry x="100" y="250" width="120" height="40" as="geometry" />
        </mxCell>
        <mxCell id="4w4W0nmU5TRRSQJKcKBw-10" style="edgeStyle=orthogonalEdgeStyle;rounded=0;orthogonalLoop=1;jettySize=auto;html=1;exitX=0.5;exitY=1;exitDx=0;exitDy=0;entryX=0.5;entryY=0;entryDx=0;entryDy=0;fontStyle=1" edge="1" parent="WIyWlLk6GJQsqaUBKTNV-1" source="WIyWlLk6GJQsqaUBKTNV-11" target="4w4W0nmU5TRRSQJKcKBw-8">
          <mxGeometry relative="1" as="geometry" />
        </mxCell>
        <mxCell id="WIyWlLk6GJQsqaUBKTNV-11" value="Suma = numero 1 + numero 2" style="rounded=1;whiteSpace=wrap;html=1;fontSize=12;glass=0;strokeWidth=1;shadow=0;fontStyle=1" vertex="1" parent="WIyWlLk6GJQsqaUBKTNV-1">
          <mxGeometry x="100" y="350" width="120" height="40" as="geometry" />
        </mxCell>
        <mxCell id="4w4W0nmU5TRRSQJKcKBw-0" value="" style="endArrow=classic;html=1;rounded=0;entryX=0.5;entryY=0;entryDx=0;entryDy=0;exitX=0.5;exitY=1;exitDx=0;exitDy=0;fontStyle=1" edge="1" parent="WIyWlLk6GJQsqaUBKTNV-1" target="WIyWlLk6GJQsqaUBKTNV-11">
          <mxGeometry width="50" height="50" relative="1" as="geometry">
            <mxPoint x="160" y="290" as="sourcePoint" />
            <mxPoint x="180" y="280" as="targetPoint" />
            <Array as="points" />
          </mxGeometry>
        </mxCell>
        <mxCell id="4w4W0nmU5TRRSQJKcKBw-7" style="edgeStyle=orthogonalEdgeStyle;rounded=0;orthogonalLoop=1;jettySize=auto;html=1;exitX=0.5;exitY=1;exitDx=0;exitDy=0;entryX=0.5;entryY=0;entryDx=0;entryDy=0;fontStyle=1" edge="1" parent="WIyWlLk6GJQsqaUBKTNV-1" source="4w4W0nmU5TRRSQJKcKBw-5" target="WIyWlLk6GJQsqaUBKTNV-3">
          <mxGeometry relative="1" as="geometry" />
        </mxCell>
        <mxCell id="4w4W0nmU5TRRSQJKcKBw-5" value="Inicio" style="ellipse;whiteSpace=wrap;html=1;fontStyle=1" vertex="1" parent="WIyWlLk6GJQsqaUBKTNV-1">
          <mxGeometry x="110" y="60" width="100" height="50" as="geometry" />
        </mxCell>
        <mxCell id="4w4W0nmU5TRRSQJKcKBw-13" style="edgeStyle=orthogonalEdgeStyle;rounded=0;orthogonalLoop=1;jettySize=auto;html=1;exitX=0.5;exitY=1;exitDx=0;exitDy=0;entryX=0.5;entryY=0;entryDx=0;entryDy=0;fontStyle=1" edge="1" parent="WIyWlLk6GJQsqaUBKTNV-1" source="4w4W0nmU5TRRSQJKcKBw-8" target="4w4W0nmU5TRRSQJKcKBw-11">
          <mxGeometry relative="1" as="geometry" />
        </mxCell>
        <mxCell id="4w4W0nmU5TRRSQJKcKBw-8" value="Imprimir resultado" style="rounded=1;whiteSpace=wrap;html=1;fontStyle=1" vertex="1" parent="WIyWlLk6GJQsqaUBKTNV-1">
          <mxGeometry x="100" y="420" width="120" height="40" as="geometry" />
        </mxCell>
        <mxCell id="4w4W0nmU5TRRSQJKcKBw-11" value="Fin" style="ellipse;whiteSpace=wrap;html=1;fontStyle=1" vertex="1" parent="WIyWlLk6GJQsqaUBKTNV-1">
          <mxGeometry x="110" y="490" width="100" height="50" as="geometry" />
        </mxCell>
        <mxCell id="4w4W0nmU5TRRSQJKcKBw-15" style="edgeStyle=orthogonalEdgeStyle;rounded=0;orthogonalLoop=1;jettySize=auto;html=1;exitX=0.5;exitY=1;exitDx=0;exitDy=0;entryX=0.5;entryY=0;entryDx=0;entryDy=0;fontStyle=1" edge="1" parent="WIyWlLk6GJQsqaUBKTNV-1" source="4w4W0nmU5TRRSQJKcKBw-16" target="4w4W0nmU5TRRSQJKcKBw-17">
          <mxGeometry relative="1" as="geometry" />
        </mxCell>
        <mxCell id="4w4W0nmU5TRRSQJKcKBw-16" value="Pedir base" style="rounded=1;whiteSpace=wrap;html=1;fontSize=12;glass=0;strokeWidth=1;shadow=0;fontStyle=1" vertex="1" parent="WIyWlLk6GJQsqaUBKTNV-1">
          <mxGeometry x="340" y="150" width="120" height="40" as="geometry" />
        </mxCell>
        <mxCell id="4w4W0nmU5TRRSQJKcKBw-17" value="Pedir altura" style="rounded=1;whiteSpace=wrap;html=1;fontSize=12;glass=0;strokeWidth=1;shadow=0;fontStyle=1" vertex="1" parent="WIyWlLk6GJQsqaUBKTNV-1">
          <mxGeometry x="340" y="240" width="120" height="40" as="geometry" />
        </mxCell>
        <mxCell id="4w4W0nmU5TRRSQJKcKBw-18" style="edgeStyle=orthogonalEdgeStyle;rounded=0;orthogonalLoop=1;jettySize=auto;html=1;exitX=0.5;exitY=1;exitDx=0;exitDy=0;entryX=0.5;entryY=0;entryDx=0;entryDy=0;fontStyle=1" edge="1" parent="WIyWlLk6GJQsqaUBKTNV-1" source="4w4W0nmU5TRRSQJKcKBw-19" target="4w4W0nmU5TRRSQJKcKBw-24">
          <mxGeometry relative="1" as="geometry" />
        </mxCell>
        <mxCell id="4w4W0nmU5TRRSQJKcKBw-19" value="Suma = base + base + altura + altura" style="rounded=1;whiteSpace=wrap;html=1;fontSize=12;glass=0;strokeWidth=1;shadow=0;fontStyle=1" vertex="1" parent="WIyWlLk6GJQsqaUBKTNV-1">
          <mxGeometry x="340" y="340" width="120" height="40" as="geometry" />
        </mxCell>
        <mxCell id="4w4W0nmU5TRRSQJKcKBw-20" value="" style="endArrow=classic;html=1;rounded=0;entryX=0.5;entryY=0;entryDx=0;entryDy=0;exitX=0.5;exitY=1;exitDx=0;exitDy=0;fontStyle=1" edge="1" parent="WIyWlLk6GJQsqaUBKTNV-1" target="4w4W0nmU5TRRSQJKcKBw-19">
          <mxGeometry width="50" height="50" relative="1" as="geometry">
            <mxPoint x="400" y="280" as="sourcePoint" />
            <mxPoint x="420" y="270" as="targetPoint" />
            <Array as="points" />
          </mxGeometry>
        </mxCell>
        <mxCell id="4w4W0nmU5TRRSQJKcKBw-21" style="edgeStyle=orthogonalEdgeStyle;rounded=0;orthogonalLoop=1;jettySize=auto;html=1;exitX=0.5;exitY=1;exitDx=0;exitDy=0;entryX=0.5;entryY=0;entryDx=0;entryDy=0;fontStyle=1" edge="1" parent="WIyWlLk6GJQsqaUBKTNV-1" source="4w4W0nmU5TRRSQJKcKBw-22" target="4w4W0nmU5TRRSQJKcKBw-16">
          <mxGeometry relative="1" as="geometry" />
        </mxCell>
        <mxCell id="4w4W0nmU5TRRSQJKcKBw-22" value="Inicio" style="ellipse;whiteSpace=wrap;html=1;fontStyle=1" vertex="1" parent="WIyWlLk6GJQsqaUBKTNV-1">
          <mxGeometry x="350" y="60" width="100" height="50" as="geometry" />
        </mxCell>
        <mxCell id="4w4W0nmU5TRRSQJKcKBw-23" style="edgeStyle=orthogonalEdgeStyle;rounded=0;orthogonalLoop=1;jettySize=auto;html=1;exitX=0.5;exitY=1;exitDx=0;exitDy=0;entryX=0.5;entryY=0;entryDx=0;entryDy=0;fontStyle=1" edge="1" parent="WIyWlLk6GJQsqaUBKTNV-1" source="4w4W0nmU5TRRSQJKcKBw-24" target="4w4W0nmU5TRRSQJKcKBw-25">
          <mxGeometry relative="1" as="geometry" />
        </mxCell>
        <mxCell id="4w4W0nmU5TRRSQJKcKBw-24" value="Imprimir perimetro" style="rounded=1;whiteSpace=wrap;html=1;fontStyle=1" vertex="1" parent="WIyWlLk6GJQsqaUBKTNV-1">
          <mxGeometry x="340" y="410" width="120" height="40" as="geometry" />
        </mxCell>
        <mxCell id="4w4W0nmU5TRRSQJKcKBw-25" value="Fin" style="ellipse;whiteSpace=wrap;html=1;fontStyle=1" vertex="1" parent="WIyWlLk6GJQsqaUBKTNV-1">
          <mxGeometry x="350" y="480" width="100" height="50" as="geometry" />
        </mxCell>
        <mxCell id="4w4W0nmU5TRRSQJKcKBw-26" style="edgeStyle=orthogonalEdgeStyle;rounded=0;orthogonalLoop=1;jettySize=auto;html=1;exitX=0.5;exitY=1;exitDx=0;exitDy=0;entryX=0.5;entryY=0;entryDx=0;entryDy=0;fontStyle=1" edge="1" parent="WIyWlLk6GJQsqaUBKTNV-1" source="4w4W0nmU5TRRSQJKcKBw-27" target="4w4W0nmU5TRRSQJKcKBw-28">
          <mxGeometry relative="1" as="geometry" />
        </mxCell>
        <mxCell id="4w4W0nmU5TRRSQJKcKBw-27" value="Pedir lado" style="rounded=1;whiteSpace=wrap;html=1;fontSize=12;glass=0;strokeWidth=1;shadow=0;fontStyle=1" vertex="1" parent="WIyWlLk6GJQsqaUBKTNV-1">
          <mxGeometry x="580" y="140" width="120" height="40" as="geometry" />
        </mxCell>
        <mxCell id="4w4W0nmU5TRRSQJKcKBw-28" value="Area = lado * lado" style="rounded=1;whiteSpace=wrap;html=1;fontSize=12;glass=0;strokeWidth=1;shadow=0;fontStyle=1" vertex="1" parent="WIyWlLk6GJQsqaUBKTNV-1">
          <mxGeometry x="580" y="230" width="120" height="40" as="geometry" />
        </mxCell>
        <mxCell id="4w4W0nmU5TRRSQJKcKBw-30" value="Imprimir perimetro" style="rounded=1;whiteSpace=wrap;html=1;fontSize=12;glass=0;strokeWidth=1;shadow=0;fontStyle=1" vertex="1" parent="WIyWlLk6GJQsqaUBKTNV-1">
          <mxGeometry x="580" y="330" width="120" height="40" as="geometry" />
        </mxCell>
        <mxCell id="4w4W0nmU5TRRSQJKcKBw-31" value="" style="endArrow=classic;html=1;rounded=0;entryX=0.5;entryY=0;entryDx=0;entryDy=0;exitX=0.5;exitY=1;exitDx=0;exitDy=0;fontStyle=1" edge="1" parent="WIyWlLk6GJQsqaUBKTNV-1" target="4w4W0nmU5TRRSQJKcKBw-30">
          <mxGeometry width="50" height="50" relative="1" as="geometry">
            <mxPoint x="640" y="270" as="sourcePoint" />
            <mxPoint x="660" y="260" as="targetPoint" />
            <Array as="points" />
          </mxGeometry>
        </mxCell>
        <mxCell id="4w4W0nmU5TRRSQJKcKBw-32" style="edgeStyle=orthogonalEdgeStyle;rounded=0;orthogonalLoop=1;jettySize=auto;html=1;exitX=0.5;exitY=1;exitDx=0;exitDy=0;entryX=0.5;entryY=0;entryDx=0;entryDy=0;fontStyle=1" edge="1" parent="WIyWlLk6GJQsqaUBKTNV-1" source="4w4W0nmU5TRRSQJKcKBw-33" target="4w4W0nmU5TRRSQJKcKBw-27">
          <mxGeometry relative="1" as="geometry" />
        </mxCell>
        <mxCell id="4w4W0nmU5TRRSQJKcKBw-33" value="Inicio" style="ellipse;whiteSpace=wrap;html=1;fontStyle=1" vertex="1" parent="WIyWlLk6GJQsqaUBKTNV-1">
          <mxGeometry x="590" y="60" width="100" height="50" as="geometry" />
        </mxCell>
        <mxCell id="4w4W0nmU5TRRSQJKcKBw-34" style="edgeStyle=orthogonalEdgeStyle;rounded=0;orthogonalLoop=1;jettySize=auto;html=1;exitX=0.5;exitY=1;exitDx=0;exitDy=0;entryX=0.5;entryY=0;entryDx=0;entryDy=0;fontStyle=1" edge="1" parent="WIyWlLk6GJQsqaUBKTNV-1" source="4w4W0nmU5TRRSQJKcKBw-30" target="4w4W0nmU5TRRSQJKcKBw-36">
          <mxGeometry relative="1" as="geometry">
            <mxPoint x="640" y="440" as="sourcePoint" />
            <mxPoint x="640" y="380" as="targetPoint" />
          </mxGeometry>
        </mxCell>
        <mxCell id="4w4W0nmU5TRRSQJKcKBw-36" value="Fin" style="ellipse;whiteSpace=wrap;html=1;fontStyle=1" vertex="1" parent="WIyWlLk6GJQsqaUBKTNV-1">
          <mxGeometry x="590" y="410" width="100" height="50" as="geometry" />
        </mxCell>
        <mxCell id="4w4W0nmU5TRRSQJKcKBw-37" style="edgeStyle=orthogonalEdgeStyle;rounded=0;orthogonalLoop=1;jettySize=auto;html=1;exitX=0.5;exitY=1;exitDx=0;exitDy=0;entryX=0.5;entryY=0;entryDx=0;entryDy=0;fontStyle=1" edge="1" parent="WIyWlLk6GJQsqaUBKTNV-1" source="4w4W0nmU5TRRSQJKcKBw-38" target="4w4W0nmU5TRRSQJKcKBw-39">
          <mxGeometry relative="1" as="geometry" />
        </mxCell>
        <mxCell id="4w4W0nmU5TRRSQJKcKBw-38" value="Ingresar radio" style="rounded=1;whiteSpace=wrap;html=1;fontSize=12;glass=0;strokeWidth=1;shadow=0;fontStyle=1" vertex="1" parent="WIyWlLk6GJQsqaUBKTNV-1">
          <mxGeometry x="100" y="720" width="120" height="40" as="geometry" />
        </mxCell>
        <mxCell id="4w4W0nmU5TRRSQJKcKBw-39" value="Volumen =&amp;nbsp;4/3 * πr³" style="rounded=1;whiteSpace=wrap;html=1;fontSize=12;glass=0;strokeWidth=1;shadow=0;fontStyle=1" vertex="1" parent="WIyWlLk6GJQsqaUBKTNV-1">
          <mxGeometry x="100" y="810" width="120" height="40" as="geometry" />
        </mxCell>
        <mxCell id="4w4W0nmU5TRRSQJKcKBw-40" style="edgeStyle=orthogonalEdgeStyle;rounded=0;orthogonalLoop=1;jettySize=auto;html=1;exitX=0.5;exitY=1;exitDx=0;exitDy=0;entryX=0.5;entryY=0;entryDx=0;entryDy=0;fontStyle=1" edge="1" parent="WIyWlLk6GJQsqaUBKTNV-1" source="4w4W0nmU5TRRSQJKcKBw-41" target="4w4W0nmU5TRRSQJKcKBw-47">
          <mxGeometry relative="1" as="geometry">
            <mxPoint x="160" y="980" as="targetPoint" />
          </mxGeometry>
        </mxCell>
        <mxCell id="4w4W0nmU5TRRSQJKcKBw-41" value="Imprimir volumen" style="rounded=1;whiteSpace=wrap;html=1;fontSize=12;glass=0;strokeWidth=1;shadow=0;fontStyle=1" vertex="1" parent="WIyWlLk6GJQsqaUBKTNV-1">
          <mxGeometry x="100" y="910" width="120" height="40" as="geometry" />
        </mxCell>
        <mxCell id="4w4W0nmU5TRRSQJKcKBw-42" value="" style="endArrow=classic;html=1;rounded=0;entryX=0.5;entryY=0;entryDx=0;entryDy=0;exitX=0.5;exitY=1;exitDx=0;exitDy=0;fontStyle=1" edge="1" parent="WIyWlLk6GJQsqaUBKTNV-1" target="4w4W0nmU5TRRSQJKcKBw-41">
          <mxGeometry width="50" height="50" relative="1" as="geometry">
            <mxPoint x="160" y="850" as="sourcePoint" />
            <mxPoint x="180" y="840" as="targetPoint" />
            <Array as="points" />
          </mxGeometry>
        </mxCell>
        <mxCell id="4w4W0nmU5TRRSQJKcKBw-43" style="edgeStyle=orthogonalEdgeStyle;rounded=0;orthogonalLoop=1;jettySize=auto;html=1;exitX=0.5;exitY=1;exitDx=0;exitDy=0;entryX=0.5;entryY=0;entryDx=0;entryDy=0;fontStyle=1" edge="1" parent="WIyWlLk6GJQsqaUBKTNV-1" source="4w4W0nmU5TRRSQJKcKBw-44" target="4w4W0nmU5TRRSQJKcKBw-38">
          <mxGeometry relative="1" as="geometry" />
        </mxCell>
        <mxCell id="4w4W0nmU5TRRSQJKcKBw-44" value="Inicio" style="ellipse;whiteSpace=wrap;html=1;fontStyle=1" vertex="1" parent="WIyWlLk6GJQsqaUBKTNV-1">
          <mxGeometry x="110" y="630" width="100" height="50" as="geometry" />
        </mxCell>
        <mxCell id="4w4W0nmU5TRRSQJKcKBw-47" value="Fin" style="ellipse;whiteSpace=wrap;html=1;fontStyle=1" vertex="1" parent="WIyWlLk6GJQsqaUBKTNV-1">
          <mxGeometry x="110" y="980" width="100" height="50" as="geometry" />
        </mxCell>
        <mxCell id="4w4W0nmU5TRRSQJKcKBw-48" style="edgeStyle=orthogonalEdgeStyle;rounded=0;orthogonalLoop=1;jettySize=auto;html=1;exitX=0.5;exitY=1;exitDx=0;exitDy=0;entryX=0.5;entryY=0;entryDx=0;entryDy=0;fontStyle=1" edge="1" parent="WIyWlLk6GJQsqaUBKTNV-1" source="4w4W0nmU5TRRSQJKcKBw-49" target="4w4W0nmU5TRRSQJKcKBw-50">
          <mxGeometry relative="1" as="geometry" />
        </mxCell>
        <mxCell id="4w4W0nmU5TRRSQJKcKBw-49" value="Pedir primer cateto" style="rounded=1;whiteSpace=wrap;html=1;fontSize=12;glass=0;strokeWidth=1;shadow=0;fontStyle=1" vertex="1" parent="WIyWlLk6GJQsqaUBKTNV-1">
          <mxGeometry x="340" y="730" width="120" height="40" as="geometry" />
        </mxCell>
        <mxCell id="4w4W0nmU5TRRSQJKcKBw-50" value="Pedir segundo cateto" style="rounded=1;whiteSpace=wrap;html=1;fontSize=12;glass=0;strokeWidth=1;shadow=0;fontStyle=1" vertex="1" parent="WIyWlLk6GJQsqaUBKTNV-1">
          <mxGeometry x="340" y="820" width="120" height="40" as="geometry" />
        </mxCell>
        <mxCell id="4w4W0nmU5TRRSQJKcKBw-51" style="edgeStyle=orthogonalEdgeStyle;rounded=0;orthogonalLoop=1;jettySize=auto;html=1;exitX=0.5;exitY=1;exitDx=0;exitDy=0;entryX=0.5;entryY=0;entryDx=0;entryDy=0;fontStyle=1" edge="1" parent="WIyWlLk6GJQsqaUBKTNV-1" source="4w4W0nmU5TRRSQJKcKBw-52" target="4w4W0nmU5TRRSQJKcKBw-57">
          <mxGeometry relative="1" as="geometry" />
        </mxCell>
        <mxCell id="4w4W0nmU5TRRSQJKcKBw-52" value="Hipotenusa = √cateto1&lt;span style=&quot;vertical-align: baseline; position: relative; top: -0.4em; color: rgb(32, 33, 36); font-family: arial, sans-serif; text-align: left; background-color: rgb(255, 255, 255);&quot;&gt;2&lt;/span&gt;&lt;span style=&quot;color: rgb(32, 33, 36); font-family: arial, sans-serif; font-size: 16px; text-align: left; background-color: rgb(255, 255, 255);&quot;&gt;&amp;nbsp;+ &lt;/span&gt;&lt;font style=&quot;font-size: 12px;&quot;&gt;&lt;span style=&quot;color: rgb(32, 33, 36); font-family: arial, sans-serif; text-align: left; background-color: rgb(255, 255, 255);&quot;&gt;cateto2&lt;/span&gt;&lt;span style=&quot;vertical-align: baseline; position: relative; top: -0.4em; color: rgb(32, 33, 36); font-family: arial, sans-serif; text-align: left; background-color: rgb(255, 255, 255);&quot;&gt;2&lt;/span&gt;&lt;span style=&quot;color: rgb(32, 33, 36); font-family: arial, sans-serif; text-align: left; background-color: rgb(255, 255, 255);&quot;&gt;&amp;nbsp;&lt;/span&gt;&lt;/font&gt;&lt;br&gt;&amp;nbsp;" style="rounded=1;whiteSpace=wrap;html=1;fontSize=12;glass=0;strokeWidth=1;shadow=0;fontStyle=1" vertex="1" parent="WIyWlLk6GJQsqaUBKTNV-1">
          <mxGeometry x="345" y="890" width="110" height="70" as="geometry" />
        </mxCell>
        <mxCell id="4w4W0nmU5TRRSQJKcKBw-53" value="" style="endArrow=classic;html=1;rounded=0;entryX=0.5;entryY=0;entryDx=0;entryDy=0;exitX=0.5;exitY=1;exitDx=0;exitDy=0;fontStyle=1" edge="1" parent="WIyWlLk6GJQsqaUBKTNV-1" target="4w4W0nmU5TRRSQJKcKBw-52">
          <mxGeometry width="50" height="50" relative="1" as="geometry">
            <mxPoint x="400" y="860" as="sourcePoint" />
            <mxPoint x="420" y="850" as="targetPoint" />
            <Array as="points" />
          </mxGeometry>
        </mxCell>
        <mxCell id="4w4W0nmU5TRRSQJKcKBw-54" style="edgeStyle=orthogonalEdgeStyle;rounded=0;orthogonalLoop=1;jettySize=auto;html=1;exitX=0.5;exitY=1;exitDx=0;exitDy=0;entryX=0.5;entryY=0;entryDx=0;entryDy=0;fontStyle=1" edge="1" parent="WIyWlLk6GJQsqaUBKTNV-1" source="4w4W0nmU5TRRSQJKcKBw-55" target="4w4W0nmU5TRRSQJKcKBw-49">
          <mxGeometry relative="1" as="geometry" />
        </mxCell>
        <mxCell id="4w4W0nmU5TRRSQJKcKBw-55" value="Inicio" style="ellipse;whiteSpace=wrap;html=1;fontStyle=1" vertex="1" parent="WIyWlLk6GJQsqaUBKTNV-1">
          <mxGeometry x="350" y="630" width="100" height="50" as="geometry" />
        </mxCell>
        <mxCell id="4w4W0nmU5TRRSQJKcKBw-56" style="edgeStyle=orthogonalEdgeStyle;rounded=0;orthogonalLoop=1;jettySize=auto;html=1;exitX=0.5;exitY=1;exitDx=0;exitDy=0;entryX=0.5;entryY=0;entryDx=0;entryDy=0;fontStyle=1" edge="1" parent="WIyWlLk6GJQsqaUBKTNV-1" source="4w4W0nmU5TRRSQJKcKBw-57" target="4w4W0nmU5TRRSQJKcKBw-58">
          <mxGeometry relative="1" as="geometry" />
        </mxCell>
        <mxCell id="4w4W0nmU5TRRSQJKcKBw-57" value="Imprimir hipotenusa" style="rounded=1;whiteSpace=wrap;html=1;fontStyle=1" vertex="1" parent="WIyWlLk6GJQsqaUBKTNV-1">
          <mxGeometry x="340" y="990" width="120" height="40" as="geometry" />
        </mxCell>
        <mxCell id="4w4W0nmU5TRRSQJKcKBw-58" value="Fin" style="ellipse;whiteSpace=wrap;html=1;fontStyle=1" vertex="1" parent="WIyWlLk6GJQsqaUBKTNV-1">
          <mxGeometry x="350" y="1060" width="100" height="50" as="geometry" />
        </mxCell>
        <mxCell id="4w4W0nmU5TRRSQJKcKBw-59" style="edgeStyle=orthogonalEdgeStyle;rounded=0;orthogonalLoop=1;jettySize=auto;html=1;exitX=0.5;exitY=1;exitDx=0;exitDy=0;entryX=0.5;entryY=0;entryDx=0;entryDy=0;fontStyle=1" edge="1" parent="WIyWlLk6GJQsqaUBKTNV-1" source="4w4W0nmU5TRRSQJKcKBw-60" target="4w4W0nmU5TRRSQJKcKBw-61">
          <mxGeometry relative="1" as="geometry" />
        </mxCell>
        <mxCell id="4w4W0nmU5TRRSQJKcKBw-60" value="Pedir numero 1" style="rounded=1;whiteSpace=wrap;html=1;fontSize=12;glass=0;strokeWidth=1;shadow=0;fontStyle=1" vertex="1" parent="WIyWlLk6GJQsqaUBKTNV-1">
          <mxGeometry x="580" y="730" width="120" height="40" as="geometry" />
        </mxCell>
        <mxCell id="4w4W0nmU5TRRSQJKcKBw-61" value="Pedir numero 2" style="rounded=1;whiteSpace=wrap;html=1;fontSize=12;glass=0;strokeWidth=1;shadow=0;fontStyle=1" vertex="1" parent="WIyWlLk6GJQsqaUBKTNV-1">
          <mxGeometry x="580" y="820" width="120" height="40" as="geometry" />
        </mxCell>
        <mxCell id="4w4W0nmU5TRRSQJKcKBw-62" style="edgeStyle=orthogonalEdgeStyle;rounded=0;orthogonalLoop=1;jettySize=auto;html=1;exitX=0.5;exitY=1;exitDx=0;exitDy=0;entryX=0.5;entryY=0;entryDx=0;entryDy=0;fontStyle=1" edge="1" parent="WIyWlLk6GJQsqaUBKTNV-1" source="4w4W0nmU5TRRSQJKcKBw-63" target="4w4W0nmU5TRRSQJKcKBw-68">
          <mxGeometry relative="1" as="geometry" />
        </mxCell>
        <mxCell id="4w4W0nmU5TRRSQJKcKBw-63" value="Promedio = n * (n+1) / 2" style="rounded=1;whiteSpace=wrap;html=1;fontSize=12;glass=0;strokeWidth=1;shadow=0;fontStyle=1" vertex="1" parent="WIyWlLk6GJQsqaUBKTNV-1">
          <mxGeometry x="580" y="920" width="120" height="40" as="geometry" />
        </mxCell>
        <mxCell id="4w4W0nmU5TRRSQJKcKBw-64" value="" style="endArrow=classic;html=1;rounded=0;entryX=0.5;entryY=0;entryDx=0;entryDy=0;exitX=0.5;exitY=1;exitDx=0;exitDy=0;fontStyle=1" edge="1" parent="WIyWlLk6GJQsqaUBKTNV-1" target="4w4W0nmU5TRRSQJKcKBw-63">
          <mxGeometry width="50" height="50" relative="1" as="geometry">
            <mxPoint x="640" y="860" as="sourcePoint" />
            <mxPoint x="660" y="850" as="targetPoint" />
            <Array as="points" />
          </mxGeometry>
        </mxCell>
        <mxCell id="4w4W0nmU5TRRSQJKcKBw-65" style="edgeStyle=orthogonalEdgeStyle;rounded=0;orthogonalLoop=1;jettySize=auto;html=1;exitX=0.5;exitY=1;exitDx=0;exitDy=0;entryX=0.5;entryY=0;entryDx=0;entryDy=0;fontStyle=1" edge="1" parent="WIyWlLk6GJQsqaUBKTNV-1" source="4w4W0nmU5TRRSQJKcKBw-66" target="4w4W0nmU5TRRSQJKcKBw-60">
          <mxGeometry relative="1" as="geometry" />
        </mxCell>
        <mxCell id="4w4W0nmU5TRRSQJKcKBw-66" value="Inicio" style="ellipse;whiteSpace=wrap;html=1;fontStyle=1" vertex="1" parent="WIyWlLk6GJQsqaUBKTNV-1">
          <mxGeometry x="590" y="630" width="100" height="50" as="geometry" />
        </mxCell>
        <mxCell id="4w4W0nmU5TRRSQJKcKBw-67" style="edgeStyle=orthogonalEdgeStyle;rounded=0;orthogonalLoop=1;jettySize=auto;html=1;exitX=0.5;exitY=1;exitDx=0;exitDy=0;entryX=0.5;entryY=0;entryDx=0;entryDy=0;fontStyle=1" edge="1" parent="WIyWlLk6GJQsqaUBKTNV-1" source="4w4W0nmU5TRRSQJKcKBw-68" target="4w4W0nmU5TRRSQJKcKBw-69">
          <mxGeometry relative="1" as="geometry" />
        </mxCell>
        <mxCell id="4w4W0nmU5TRRSQJKcKBw-68" value="Imprimir promedio" style="rounded=1;whiteSpace=wrap;html=1;fontStyle=1" vertex="1" parent="WIyWlLk6GJQsqaUBKTNV-1">
          <mxGeometry x="580" y="990" width="120" height="40" as="geometry" />
        </mxCell>
        <mxCell id="4w4W0nmU5TRRSQJKcKBw-69" value="Fin" style="ellipse;whiteSpace=wrap;html=1;fontStyle=1" vertex="1" parent="WIyWlLk6GJQsqaUBKTNV-1">
          <mxGeometry x="590" y="1060" width="100" height="50" as="geometry" />
        </mxCell>
      </root>
    </mxGraphModel>
  </diagram>
  <diagram id="yIrBGDkjPRxZ46joX6wb" name="Página-2">
    <mxGraphModel grid="1" page="1" gridSize="10" guides="1" tooltips="1" connect="1" arrows="1" fold="1" pageScale="1" pageWidth="827" pageHeight="1169" math="0" shadow="0">
      <root>
        <mxCell id="0" />
        <mxCell id="1" parent="0" />
        <mxCell id="o0s8ZLAC5IwazvcJ9w22-1" style="edgeStyle=orthogonalEdgeStyle;rounded=0;orthogonalLoop=1;jettySize=auto;html=1;exitX=0.5;exitY=1;exitDx=0;exitDy=0;entryX=0.5;entryY=0;entryDx=0;entryDy=0;fontStyle=1" edge="1" parent="1" source="o0s8ZLAC5IwazvcJ9w22-2" target="o0s8ZLAC5IwazvcJ9w22-3">
          <mxGeometry relative="1" as="geometry" />
        </mxCell>
        <mxCell id="o0s8ZLAC5IwazvcJ9w22-2" value="Pedir base" style="rounded=1;whiteSpace=wrap;html=1;fontSize=12;glass=0;strokeWidth=1;shadow=0;fontStyle=1" vertex="1" parent="1">
          <mxGeometry x="100" y="160" width="120" height="40" as="geometry" />
        </mxCell>
        <mxCell id="o0s8ZLAC5IwazvcJ9w22-3" value="Pedir altura" style="rounded=1;whiteSpace=wrap;html=1;fontSize=12;glass=0;strokeWidth=1;shadow=0;fontStyle=1" vertex="1" parent="1">
          <mxGeometry x="100" y="250" width="120" height="40" as="geometry" />
        </mxCell>
        <mxCell id="o0s8ZLAC5IwazvcJ9w22-4" style="edgeStyle=orthogonalEdgeStyle;rounded=0;orthogonalLoop=1;jettySize=auto;html=1;exitX=0.5;exitY=1;exitDx=0;exitDy=0;entryX=0.5;entryY=0;entryDx=0;entryDy=0;fontStyle=1" edge="1" parent="1" source="o0s8ZLAC5IwazvcJ9w22-5" target="o0s8ZLAC5IwazvcJ9w22-10">
          <mxGeometry relative="1" as="geometry" />
        </mxCell>
        <mxCell id="o0s8ZLAC5IwazvcJ9w22-5" value="Area = base * altura / 2" style="rounded=1;whiteSpace=wrap;html=1;fontSize=12;glass=0;strokeWidth=1;shadow=0;fontStyle=1" vertex="1" parent="1">
          <mxGeometry x="100" y="350" width="120" height="40" as="geometry" />
        </mxCell>
        <mxCell id="o0s8ZLAC5IwazvcJ9w22-6" value="" style="endArrow=classic;html=1;rounded=0;entryX=0.5;entryY=0;entryDx=0;entryDy=0;exitX=0.5;exitY=1;exitDx=0;exitDy=0;fontStyle=1" edge="1" parent="1" target="o0s8ZLAC5IwazvcJ9w22-5">
          <mxGeometry width="50" height="50" relative="1" as="geometry">
            <mxPoint x="160" y="290" as="sourcePoint" />
            <mxPoint x="180" y="280" as="targetPoint" />
            <Array as="points" />
          </mxGeometry>
        </mxCell>
        <mxCell id="o0s8ZLAC5IwazvcJ9w22-7" style="edgeStyle=orthogonalEdgeStyle;rounded=0;orthogonalLoop=1;jettySize=auto;html=1;exitX=0.5;exitY=1;exitDx=0;exitDy=0;entryX=0.5;entryY=0;entryDx=0;entryDy=0;fontStyle=1" edge="1" parent="1" source="o0s8ZLAC5IwazvcJ9w22-8" target="o0s8ZLAC5IwazvcJ9w22-2">
          <mxGeometry relative="1" as="geometry" />
        </mxCell>
        <mxCell id="o0s8ZLAC5IwazvcJ9w22-8" value="Inicio" style="ellipse;whiteSpace=wrap;html=1;fontStyle=1" vertex="1" parent="1">
          <mxGeometry x="110" y="50" width="100" height="50" as="geometry" />
        </mxCell>
        <mxCell id="o0s8ZLAC5IwazvcJ9w22-9" style="edgeStyle=orthogonalEdgeStyle;rounded=0;orthogonalLoop=1;jettySize=auto;html=1;exitX=0.5;exitY=1;exitDx=0;exitDy=0;entryX=0.5;entryY=0;entryDx=0;entryDy=0;fontStyle=1" edge="1" parent="1" source="o0s8ZLAC5IwazvcJ9w22-10" target="o0s8ZLAC5IwazvcJ9w22-11">
          <mxGeometry relative="1" as="geometry" />
        </mxCell>
        <mxCell id="o0s8ZLAC5IwazvcJ9w22-10" value="Imprimir area" style="rounded=1;whiteSpace=wrap;html=1;fontStyle=1" vertex="1" parent="1">
          <mxGeometry x="100" y="420" width="120" height="40" as="geometry" />
        </mxCell>
        <mxCell id="o0s8ZLAC5IwazvcJ9w22-11" value="Fin" style="ellipse;whiteSpace=wrap;html=1;fontStyle=1" vertex="1" parent="1">
          <mxGeometry x="110" y="490" width="100" height="50" as="geometry" />
        </mxCell>
        <mxCell id="f2pDhXAjGCSwKGkyzhOA-1" style="edgeStyle=orthogonalEdgeStyle;rounded=0;orthogonalLoop=1;jettySize=auto;html=1;exitX=0.5;exitY=1;exitDx=0;exitDy=0;entryX=0.5;entryY=0;entryDx=0;entryDy=0;fontStyle=1" edge="1" parent="1" source="f2pDhXAjGCSwKGkyzhOA-2" target="f2pDhXAjGCSwKGkyzhOA-3">
          <mxGeometry relative="1" as="geometry" />
        </mxCell>
        <mxCell id="f2pDhXAjGCSwKGkyzhOA-2" value="Pedir base" style="rounded=1;whiteSpace=wrap;html=1;fontSize=12;glass=0;strokeWidth=1;shadow=0;fontStyle=1" vertex="1" parent="1">
          <mxGeometry x="349" y="150" width="120" height="40" as="geometry" />
        </mxCell>
        <mxCell id="f2pDhXAjGCSwKGkyzhOA-3" value="Pedir altura" style="rounded=1;whiteSpace=wrap;html=1;fontSize=12;glass=0;strokeWidth=1;shadow=0;fontStyle=1" vertex="1" parent="1">
          <mxGeometry x="349" y="240" width="120" height="40" as="geometry" />
        </mxCell>
        <mxCell id="f2pDhXAjGCSwKGkyzhOA-4" style="edgeStyle=orthogonalEdgeStyle;rounded=0;orthogonalLoop=1;jettySize=auto;html=1;exitX=0.5;exitY=1;exitDx=0;exitDy=0;entryX=0.5;entryY=0;entryDx=0;entryDy=0;fontStyle=1" edge="1" parent="1" source="f2pDhXAjGCSwKGkyzhOA-5" target="f2pDhXAjGCSwKGkyzhOA-10">
          <mxGeometry relative="1" as="geometry" />
        </mxCell>
        <mxCell id="f2pDhXAjGCSwKGkyzhOA-5" value="Area = base * altura&amp;nbsp;" style="rounded=1;whiteSpace=wrap;html=1;fontSize=12;glass=0;strokeWidth=1;shadow=0;fontStyle=1" vertex="1" parent="1">
          <mxGeometry x="349" y="340" width="120" height="40" as="geometry" />
        </mxCell>
        <mxCell id="f2pDhXAjGCSwKGkyzhOA-6" value="" style="endArrow=classic;html=1;rounded=0;entryX=0.5;entryY=0;entryDx=0;entryDy=0;exitX=0.5;exitY=1;exitDx=0;exitDy=0;fontStyle=1" edge="1" parent="1" target="f2pDhXAjGCSwKGkyzhOA-5">
          <mxGeometry width="50" height="50" relative="1" as="geometry">
            <mxPoint x="409" y="280" as="sourcePoint" />
            <mxPoint x="429" y="270" as="targetPoint" />
            <Array as="points" />
          </mxGeometry>
        </mxCell>
        <mxCell id="f2pDhXAjGCSwKGkyzhOA-7" style="edgeStyle=orthogonalEdgeStyle;rounded=0;orthogonalLoop=1;jettySize=auto;html=1;exitX=0.5;exitY=1;exitDx=0;exitDy=0;entryX=0.5;entryY=0;entryDx=0;entryDy=0;fontStyle=1" edge="1" parent="1" source="f2pDhXAjGCSwKGkyzhOA-8" target="f2pDhXAjGCSwKGkyzhOA-2">
          <mxGeometry relative="1" as="geometry" />
        </mxCell>
        <mxCell id="f2pDhXAjGCSwKGkyzhOA-8" value="Inicio" style="ellipse;whiteSpace=wrap;html=1;fontStyle=1" vertex="1" parent="1">
          <mxGeometry x="359" y="50" width="100" height="50" as="geometry" />
        </mxCell>
        <mxCell id="f2pDhXAjGCSwKGkyzhOA-9" style="edgeStyle=orthogonalEdgeStyle;rounded=0;orthogonalLoop=1;jettySize=auto;html=1;exitX=0.5;exitY=1;exitDx=0;exitDy=0;entryX=0.5;entryY=0;entryDx=0;entryDy=0;fontStyle=1" edge="1" parent="1" source="f2pDhXAjGCSwKGkyzhOA-10" target="f2pDhXAjGCSwKGkyzhOA-11">
          <mxGeometry relative="1" as="geometry" />
        </mxCell>
        <mxCell id="f2pDhXAjGCSwKGkyzhOA-10" value="Imprimir area" style="rounded=1;whiteSpace=wrap;html=1;fontStyle=1" vertex="1" parent="1">
          <mxGeometry x="349" y="410" width="120" height="40" as="geometry" />
        </mxCell>
        <mxCell id="f2pDhXAjGCSwKGkyzhOA-11" value="Fin" style="ellipse;whiteSpace=wrap;html=1;fontStyle=1" vertex="1" parent="1">
          <mxGeometry x="359" y="480" width="100" height="50" as="geometry" />
        </mxCell>
      </root>
    </mxGraphModel>
  </diagram>
</mxfile>
